# xmcd CD database file
#
# Track frame offsets:
#	150
#	24323
#	37933
#	56543
#	88251
#	111074
#	140145
#	165067
#	189101
#
# Disc length: 2901 seconds
#
# Revision: 0
# Processed by: cddbd v1.5.2PL0 Copyright (c) Steve Scherf et al.
# Submitted via: CDex 1.70beta2
#
DISCID=650b5309
DTITLE=Ron Carter - The Golden Striker 
DYEAR=2003
DGENRE=Jazz
TTITLE0=The Golden Striker 
TTITLE1=On and On 
TTITLE2=NY Slick 
TTITLE3=Concierto de Aranjuez (Adagio Theme) 
TTITLE4=Cedar Tree 
TTITLE5=A Quick Sketch 
TTITLE6=Parade 
TTITLE7=A Theme in 3/4 
TTITLE8=Autumn Leaves 
EXTD=YEAR: 2003
EXTT0=
EXTT1=
EXTT2=
EXTT3=
EXTT4=
EXTT5=
EXTT6=
EXTT7=
EXTT8=
PLAYORDER=
